<svg width="80" height="36" viewBox="0 0 80 36" fill="none" xmlns="http://www.w3.org/2000/svg">
<path d="M25.1095 14.1427C25.451 14.1427 25.7774 14.0071 26.0185 13.766L32.4471 7.33742C32.9493 6.83522 32.9493 6.02162 32.4471 5.51929L29.8756 2.94784C29.3734 2.44564 28.5598 2.44564 28.0575 2.94784L17.3951 13.6103L16.1094 12.3246V7.71414C16.1094 7.37265 15.9738 7.04621 15.7327 6.80513L9.3041 0.37653C8.80189 -0.125673 7.98829 -0.125673 7.48596 0.37653L4.91452 2.94797C4.41232 3.45017 4.41232 4.26378 4.91452 4.76611L15.577 15.4285L14.2913 16.7142H9.68081C9.33933 16.7142 9.01288 16.8498 8.77181 17.0909L2.3432 23.5195C1.841 24.0217 1.841 24.8353 2.3432 25.3376L4.91465 27.9091C5.16575 28.1601 5.49463 28.2857 5.82365 28.2857C6.15267 28.2857 6.48155 28.1601 6.73266 27.909L17.3951 17.2466L18.6809 18.5323V23.1428C18.6809 23.4843 18.8165 23.8107 19.0576 24.0518L25.4862 30.4804C25.7373 30.7315 26.0662 30.8571 26.3952 30.8571C26.7242 30.8571 27.0531 30.7315 27.3042 30.4804L29.8756 27.909C30.3778 27.4068 30.3778 26.5932 29.8756 26.0908L19.2133 15.4285L20.499 14.1427H25.1095Z" fill="#00F100"/>
<path d="M17.395 8.99988V11.7923L19.7795 9.40784C19.0283 9.15159 18.2295 8.99988 17.395 8.99988Z" fill="#00F100"/>
<path d="M11.0148 12.6843C10.589 13.4275 10.2872 14.2568 10.139 15.1471L10.092 15.4284H13.7588L11.0148 12.6843Z" fill="#00F100"/>
<path d="M24.6981 15.4285H21.0312L25.4316 19.8288L24.6981 15.4285Z" fill="#00F100"/>
<path fill-rule="evenodd" clip-rule="evenodd" d="M12.1658 36.0001L13.4053 29.2701L18.1484 31.3896L21.9255 28.7381L18.1484 24.961C17.6625 24.475 17.3951 23.8297 17.3951 23.1429V19.0647L8.03851 28.4213L7.12321 34.5234C7.06792 34.8938 7.17721 35.2693 7.42072 35.553C7.66552 35.8368 8.0209 36.0001 8.39504 36.0001H12.1658Z" fill="#00F100"/>
<path d="M38.1134 12.9498C38.0812 12.5472 37.9302 12.2332 37.6604 12.0077C37.3947 11.7823 36.9901 11.6695 36.4466 11.6695C36.1004 11.6695 35.8165 11.7118 35.5951 11.7964C35.3777 11.8769 35.2167 11.9876 35.112 12.1285C35.0073 12.2694 34.953 12.4304 34.9489 12.6116C34.9409 12.7606 34.9671 12.8954 35.0275 13.0162C35.0919 13.133 35.1925 13.2397 35.3294 13.3363C35.4663 13.4289 35.6414 13.5134 35.8548 13.5899C36.0682 13.6664 36.3218 13.7349 36.6157 13.7953L37.6302 14.0127C38.3147 14.1576 38.9004 14.3488 39.3876 14.5864C39.8747 14.8239 40.2733 15.1037 40.5833 15.4258C40.8933 15.7438 41.1208 16.1021 41.2657 16.5007C41.4147 16.8993 41.4912 17.3341 41.4952 17.8051C41.4912 18.6184 41.2878 19.3068 40.8852 19.8704C40.4826 20.4341 39.9069 20.8628 39.1581 21.1567C38.4133 21.4506 37.5175 21.5976 36.4708 21.5976C35.3958 21.5976 34.4578 21.4386 33.6566 21.1205C32.8595 20.8025 32.2395 20.3133 31.7966 19.653C31.3578 18.9888 31.1364 18.1393 31.1323 17.1046H34.3209C34.341 17.483 34.4356 17.8011 34.6047 18.0588C34.7738 18.3164 35.0113 18.5117 35.3173 18.6445C35.6273 18.7774 35.9957 18.8438 36.4225 18.8438C36.7808 18.8438 37.0807 18.7995 37.3223 18.711C37.5638 18.6224 37.747 18.4996 37.8718 18.3426C37.9966 18.1856 38.061 18.0064 38.065 17.8051C38.061 17.6159 37.9986 17.4508 37.8778 17.3099C37.7611 17.165 37.5678 17.0362 37.2981 16.9234C37.0284 16.8067 36.664 16.698 36.205 16.5973L34.9731 16.3316C33.878 16.0941 33.0145 15.6975 32.3824 15.1419C31.7543 14.5823 31.4423 13.8194 31.4464 12.8532C31.4423 12.0681 31.6517 11.3817 32.0744 10.7939C32.5012 10.2021 33.091 9.7411 33.8438 9.41097C34.6007 9.08084 35.4683 8.91577 36.4466 8.91577C37.445 8.91577 38.3086 9.08285 39.0373 9.41701C39.766 9.75116 40.3276 10.2222 40.7222 10.8301C41.1208 11.434 41.3221 12.1406 41.3261 12.9498H38.1134Z" fill="white"/>
<path d="M42.7724 21.4526V9.08486H48.1109C49.0288 9.08486 49.832 9.26603 50.5204 9.62837C51.2088 9.99071 51.7443 10.5 52.1268 11.1562C52.5092 11.8125 52.7005 12.5794 52.7005 13.4571C52.7005 14.3428 52.5032 15.1097 52.1086 15.7579C51.7181 16.4061 51.1686 16.9053 50.46 17.2556C49.7555 17.6058 48.9322 17.781 47.9901 17.781H44.8015V15.1721H47.3137C47.7083 15.1721 48.0444 15.1037 48.3222 14.9668C48.604 14.8259 48.8194 14.6266 48.9684 14.369C49.1214 14.1113 49.1979 13.8073 49.1979 13.4571C49.1979 13.1028 49.1214 12.8008 48.9684 12.5512C48.8194 12.2976 48.604 12.1043 48.3222 11.9715C48.0444 11.8346 47.7083 11.7662 47.3137 11.7662H46.1301V21.4526H42.7724Z" fill="white"/>
<path d="M57.2901 9.08486V21.4526H53.9324V9.08486H57.2901Z" fill="white"/>
<path d="M69.5824 9.08486V21.4526H66.7803L62.3115 14.9547H62.239V21.4526H58.8813V9.08486H61.7317L66.1281 15.5586H66.2247V9.08486H69.5824Z" fill="white"/>
<path d="M31.1323 23.7297H35.2303L38.0492 30.5991H38.1913L41.0102 23.7297H45.1082V35.8579H41.8866V28.8462H41.7919L39.0915 35.7631H37.1491L34.4486 28.7989H34.3539V35.8579H31.1323V23.7297Z" fill="white"/>
<path d="M49.9612 23.7297V35.8579H46.6686V23.7297H49.9612Z" fill="white"/>
<path d="M51.5217 35.8579V23.7297H54.8143V33.2048H58.2431V35.8579H51.5217Z" fill="white"/>
<path d="M59.7584 35.8579V23.7297H63.051V33.2048H66.4797V35.8579H59.7584Z" fill="white"/>
<path d="M74.7172 27.5197C74.6856 27.1249 74.5376 26.817 74.2731 26.5959C74.0125 26.3748 73.6157 26.2643 73.0828 26.2643C72.7432 26.2643 72.4649 26.3057 72.2478 26.3886C72.0346 26.4676 71.8766 26.5762 71.774 26.7143C71.6713 26.8525 71.618 27.0104 71.6141 27.1881C71.6062 27.3342 71.6319 27.4664 71.6911 27.5849C71.7543 27.6994 71.853 27.804 71.9872 27.8987C72.1214 27.9895 72.2932 28.0724 72.5024 28.1475C72.7116 28.2225 72.9604 28.2896 73.2486 28.3488L74.2435 28.562C74.9146 28.7041 75.4891 28.8916 75.9668 29.1246C76.4445 29.3575 76.8353 29.6319 77.1393 29.9477C77.4433 30.2596 77.6664 30.611 77.8085 31.0018C77.9546 31.3927 78.0296 31.8191 78.0335 32.281C78.0296 33.0785 77.8302 33.7536 77.4354 34.3063C77.0406 34.859 76.476 35.2795 75.7417 35.5677C75.0113 35.8559 74.1329 36 73.1064 36C72.0523 36 71.1324 35.844 70.3468 35.5322C69.5651 35.2203 68.9571 34.7406 68.5228 34.0931C68.0925 33.4417 67.8754 32.6087 67.8714 31.594H70.9982C71.018 31.9651 71.1107 32.277 71.2765 32.5297C71.4424 32.7824 71.6753 32.9739 71.9753 33.1041C72.2793 33.2344 72.6406 33.2996 73.0591 33.2996C73.4104 33.2996 73.7046 33.2561 73.9414 33.1693C74.1783 33.0824 74.3579 32.962 74.4803 32.808C74.6027 32.6541 74.6659 32.4784 74.6698 32.281C74.6659 32.0954 74.6047 31.9336 74.4863 31.7954C74.3718 31.6533 74.1823 31.5269 73.9177 31.4164C73.6532 31.3019 73.2959 31.1953 72.8459 31.0966L71.6378 30.836C70.5639 30.6031 69.7171 30.2142 69.0973 29.6694C68.4814 29.1206 68.1754 28.3725 68.1794 27.425C68.1754 26.6551 68.3807 25.982 68.7952 25.4056C69.2137 24.8252 69.7921 24.3732 70.5304 24.0494C71.2726 23.7257 72.1234 23.5638 73.0828 23.5638C74.0619 23.5638 74.9087 23.7277 75.6233 24.0554C76.3379 24.383 76.8886 24.845 77.2755 25.4411C77.6664 26.0333 77.8638 26.7262 77.8677 27.5197H74.7172Z" fill="white"/>
</svg>
